<mxfile host="app.diagrams.net" agent="Mozilla/5.0 (Windows NT 10.0; Win64; x64) AppleWebKit/537.36 (KHTML, like Gecko) Chrome/129.0.0.0 Safari/537.36 Edg/129.0.0.0" version="24.7.17" pages="4">
  <diagram id="lDLhYnGmyquKfvSBZehV" name="Arquitectura Funcionamiento">
    <mxGraphModel dx="1246" dy="647" grid="1" gridSize="10" guides="1" tooltips="1" connect="1" arrows="1" fold="1" page="1" pageScale="1" pageWidth="1169" pageHeight="827" math="0" shadow="0">
      <root>
        <mxCell id="0" />
        <mxCell id="1" parent="0" />
        <mxCell id="K8jYG6XQFHsGVsh4xSQ5-2" value="&lt;span style=&quot;font-weight: 700;&quot;&gt;ACORTADOR DE LINKS&lt;/span&gt;" style="rounded=0;whiteSpace=wrap;html=1;fillColor=#dae8fc;strokeColor=#6c8ebf;" parent="1" vertex="1">
          <mxGeometry x="595" y="350" width="120" height="40" as="geometry" />
        </mxCell>
        <mxCell id="K8jYG6XQFHsGVsh4xSQ5-49" style="edgeStyle=orthogonalEdgeStyle;rounded=0;orthogonalLoop=1;jettySize=auto;html=1;exitX=0.5;exitY=0;exitDx=0;exitDy=0;entryX=0.5;entryY=1;entryDx=0;entryDy=0;" parent="1" source="K8jYG6XQFHsGVsh4xSQ5-7" target="K8jYG6XQFHsGVsh4xSQ5-2" edge="1">
          <mxGeometry relative="1" as="geometry" />
        </mxCell>
        <mxCell id="K8jYG6XQFHsGVsh4xSQ5-7" value="Login" style="rounded=0;whiteSpace=wrap;html=1;fontStyle=0" parent="1" vertex="1">
          <mxGeometry x="375" y="450" width="60" height="40" as="geometry" />
        </mxCell>
        <mxCell id="K8jYG6XQFHsGVsh4xSQ5-12" style="edgeStyle=orthogonalEdgeStyle;rounded=0;orthogonalLoop=1;jettySize=auto;html=1;exitX=0.5;exitY=0;exitDx=0;exitDy=0;" parent="1" source="K8jYG6XQFHsGVsh4xSQ5-2" target="K8jYG6XQFHsGVsh4xSQ5-10" edge="1">
          <mxGeometry relative="1" as="geometry">
            <mxPoint x="635.0526315789475" y="330" as="sourcePoint" />
          </mxGeometry>
        </mxCell>
        <mxCell id="K8jYG6XQFHsGVsh4xSQ5-45" style="edgeStyle=orthogonalEdgeStyle;rounded=0;orthogonalLoop=1;jettySize=auto;html=1;exitX=0.5;exitY=0;exitDx=0;exitDy=0;" parent="1" source="K8jYG6XQFHsGVsh4xSQ5-2" target="K8jYG6XQFHsGVsh4xSQ5-24" edge="1">
          <mxGeometry relative="1" as="geometry">
            <mxPoint x="635.0526315789475" y="330" as="sourcePoint" />
            <Array as="points">
              <mxPoint x="655" y="320" />
              <mxPoint x="820" y="320" />
            </Array>
          </mxGeometry>
        </mxCell>
        <mxCell id="K8jYG6XQFHsGVsh4xSQ5-13" style="edgeStyle=orthogonalEdgeStyle;rounded=0;orthogonalLoop=1;jettySize=auto;html=1;" parent="1" source="K8jYG6XQFHsGVsh4xSQ5-10" target="K8jYG6XQFHsGVsh4xSQ5-11" edge="1">
          <mxGeometry relative="1" as="geometry" />
        </mxCell>
        <mxCell id="K8jYG6XQFHsGVsh4xSQ5-10" value="Evidencia mis conocimientos Backend:&lt;br&gt;&lt;ul&gt;&lt;li&gt;PHP&lt;/li&gt;&lt;li&gt;Api Rest&lt;/li&gt;&lt;li&gt;Manejo de sesiones&lt;/li&gt;&lt;li&gt;interaccion con base de datos&lt;/li&gt;&lt;li&gt;Patron MVC&lt;/li&gt;&lt;li&gt;estrategias de autenticacion&lt;/li&gt;&lt;/ul&gt;" style="rounded=0;whiteSpace=wrap;html=1;fontStyle=0;fillColor=#fff2cc;strokeColor=#d6b656;align=left;" parent="1" vertex="1">
          <mxGeometry x="335" y="160" width="270" height="130" as="geometry" />
        </mxCell>
        <mxCell id="K8jYG6XQFHsGVsh4xSQ5-11" value="Mejora mi empleabilidad&lt;br&gt;como Full-stack" style="rounded=0;whiteSpace=wrap;html=1;fontStyle=0;fillColor=#fff2cc;strokeColor=#d6b656;" parent="1" vertex="1">
          <mxGeometry x="575" y="60" width="120" height="60" as="geometry" />
        </mxCell>
        <mxCell id="K8jYG6XQFHsGVsh4xSQ5-48" style="edgeStyle=orthogonalEdgeStyle;rounded=0;orthogonalLoop=1;jettySize=auto;html=1;exitX=0.5;exitY=0;exitDx=0;exitDy=0;entryX=0.5;entryY=1;entryDx=0;entryDy=0;" parent="1" source="K8jYG6XQFHsGVsh4xSQ5-20" target="K8jYG6XQFHsGVsh4xSQ5-2" edge="1">
          <mxGeometry relative="1" as="geometry" />
        </mxCell>
        <mxCell id="K8jYG6XQFHsGVsh4xSQ5-20" value="Acortador" style="rounded=0;whiteSpace=wrap;html=1;fontStyle=0" parent="1" vertex="1">
          <mxGeometry x="725" y="450" width="80" height="40" as="geometry" />
        </mxCell>
        <mxCell id="K8jYG6XQFHsGVsh4xSQ5-47" style="edgeStyle=orthogonalEdgeStyle;rounded=0;orthogonalLoop=1;jettySize=auto;html=1;exitX=0.5;exitY=0;exitDx=0;exitDy=0;entryX=0.5;entryY=1;entryDx=0;entryDy=0;" parent="1" source="K8jYG6XQFHsGVsh4xSQ5-22" target="K8jYG6XQFHsGVsh4xSQ5-2" edge="1">
          <mxGeometry relative="1" as="geometry" />
        </mxCell>
        <mxCell id="K8jYG6XQFHsGVsh4xSQ5-22" value="Gestor de links" style="rounded=0;whiteSpace=wrap;html=1;fontStyle=0" parent="1" vertex="1">
          <mxGeometry x="885" y="450" width="100" height="40" as="geometry" />
        </mxCell>
        <mxCell id="K8jYG6XQFHsGVsh4xSQ5-46" style="edgeStyle=orthogonalEdgeStyle;rounded=0;orthogonalLoop=1;jettySize=auto;html=1;" parent="1" source="K8jYG6XQFHsGVsh4xSQ5-24" target="K8jYG6XQFHsGVsh4xSQ5-11" edge="1">
          <mxGeometry relative="1" as="geometry" />
        </mxCell>
        <mxCell id="K8jYG6XQFHsGVsh4xSQ5-24" value="Evidencia mis conocimientos Frontend:&lt;br&gt;&lt;ul&gt;&lt;li&gt;React&lt;/li&gt;&lt;li&gt;Interaccion con Api Rest&lt;/li&gt;&lt;li&gt;Responsive Design&lt;/li&gt;&lt;li&gt;HTML, CSS, JS&lt;/li&gt;&lt;li&gt;estrategias de autenticacion&lt;/li&gt;&lt;/ul&gt;" style="rounded=0;whiteSpace=wrap;html=1;fontStyle=0;fillColor=#fff2cc;strokeColor=#d6b656;align=left;" parent="1" vertex="1">
          <mxGeometry x="685" y="160" width="270" height="120" as="geometry" />
        </mxCell>
        <mxCell id="K8jYG6XQFHsGVsh4xSQ5-28" style="edgeStyle=orthogonalEdgeStyle;rounded=0;orthogonalLoop=1;jettySize=auto;html=1;" parent="1" source="K8jYG6XQFHsGVsh4xSQ5-25" target="K8jYG6XQFHsGVsh4xSQ5-7" edge="1">
          <mxGeometry relative="1" as="geometry" />
        </mxCell>
        <mxCell id="K8jYG6XQFHsGVsh4xSQ5-25" value="Login" style="rounded=0;whiteSpace=wrap;html=1;fontStyle=0" parent="1" vertex="1">
          <mxGeometry x="385" y="530" width="60" height="40" as="geometry" />
        </mxCell>
        <mxCell id="gg1q1fjQuGj6BDJIblKd-30" style="edgeStyle=orthogonalEdgeStyle;rounded=0;orthogonalLoop=1;jettySize=auto;html=1;exitX=0.5;exitY=0;exitDx=0;exitDy=0;entryX=0.5;entryY=1;entryDx=0;entryDy=0;" parent="1" source="K8jYG6XQFHsGVsh4xSQ5-26" target="K8jYG6XQFHsGVsh4xSQ5-7" edge="1">
          <mxGeometry relative="1" as="geometry" />
        </mxCell>
        <mxCell id="K8jYG6XQFHsGVsh4xSQ5-26" value="Register" style="rounded=0;whiteSpace=wrap;html=1;fontStyle=0" parent="1" vertex="1">
          <mxGeometry x="295" y="530" width="60" height="40" as="geometry" />
        </mxCell>
        <mxCell id="K8jYG6XQFHsGVsh4xSQ5-87" style="edgeStyle=orthogonalEdgeStyle;rounded=0;orthogonalLoop=1;jettySize=auto;html=1;exitX=0.5;exitY=0;exitDx=0;exitDy=0;entryX=0.5;entryY=1;entryDx=0;entryDy=0;" parent="1" source="K8jYG6XQFHsGVsh4xSQ5-36" target="gg1q1fjQuGj6BDJIblKd-21" edge="1">
          <mxGeometry relative="1" as="geometry">
            <mxPoint x="325" y="870" as="targetPoint" />
          </mxGeometry>
        </mxCell>
        <mxCell id="K8jYG6XQFHsGVsh4xSQ5-36" value="Create&lt;br&gt;Usuario" style="rounded=0;whiteSpace=wrap;html=1;fontStyle=0" parent="1" vertex="1">
          <mxGeometry x="285" y="940" width="80" height="40" as="geometry" />
        </mxCell>
        <mxCell id="K8jYG6XQFHsGVsh4xSQ5-86" style="edgeStyle=orthogonalEdgeStyle;rounded=0;orthogonalLoop=1;jettySize=auto;html=1;exitX=0.5;exitY=0;exitDx=0;exitDy=0;entryX=0.5;entryY=1;entryDx=0;entryDy=0;" parent="1" source="K8jYG6XQFHsGVsh4xSQ5-37" target="gg1q1fjQuGj6BDJIblKd-20" edge="1">
          <mxGeometry relative="1" as="geometry">
            <mxPoint x="415" y="870" as="targetPoint" />
          </mxGeometry>
        </mxCell>
        <mxCell id="K8jYG6XQFHsGVsh4xSQ5-37" value="Read&lt;br&gt;Usuario" style="rounded=0;whiteSpace=wrap;html=1;fontStyle=0" parent="1" vertex="1">
          <mxGeometry x="375" y="940" width="80" height="40" as="geometry" />
        </mxCell>
        <mxCell id="K8jYG6XQFHsGVsh4xSQ5-38" value="Update&lt;br&gt;Usuario" style="rounded=0;whiteSpace=wrap;html=1;fontStyle=0" parent="1" vertex="1">
          <mxGeometry x="815" y="670" width="80" height="40" as="geometry" />
        </mxCell>
        <mxCell id="K8jYG6XQFHsGVsh4xSQ5-39" value="Delete Usuario" style="rounded=0;whiteSpace=wrap;html=1;fontStyle=0" parent="1" vertex="1">
          <mxGeometry x="915" y="670" width="80" height="40" as="geometry" />
        </mxCell>
        <mxCell id="K8jYG6XQFHsGVsh4xSQ5-56" style="edgeStyle=orthogonalEdgeStyle;rounded=0;orthogonalLoop=1;jettySize=auto;html=1;exitX=0.5;exitY=0;exitDx=0;exitDy=0;entryX=0.5;entryY=1;entryDx=0;entryDy=0;" parent="1" source="K8jYG6XQFHsGVsh4xSQ5-50" target="K8jYG6XQFHsGVsh4xSQ5-2" edge="1">
          <mxGeometry relative="1" as="geometry" />
        </mxCell>
        <mxCell id="K8jYG6XQFHsGVsh4xSQ5-50" value="Cuenta" style="rounded=0;whiteSpace=wrap;html=1;fontStyle=0" parent="1" vertex="1">
          <mxGeometry x="545" y="450" width="60" height="40" as="geometry" />
        </mxCell>
        <mxCell id="K8jYG6XQFHsGVsh4xSQ5-55" style="edgeStyle=orthogonalEdgeStyle;rounded=0;orthogonalLoop=1;jettySize=auto;html=1;exitX=0.5;exitY=0;exitDx=0;exitDy=0;entryX=0.5;entryY=1;entryDx=0;entryDy=0;" parent="1" source="K8jYG6XQFHsGVsh4xSQ5-51" target="K8jYG6XQFHsGVsh4xSQ5-50" edge="1">
          <mxGeometry relative="1" as="geometry">
            <mxPoint x="545" y="490" as="targetPoint" />
          </mxGeometry>
        </mxCell>
        <mxCell id="K8jYG6XQFHsGVsh4xSQ5-51" value="Editar Cuenta" style="rounded=0;whiteSpace=wrap;html=1;fontStyle=0" parent="1" vertex="1">
          <mxGeometry x="505" y="530" width="60" height="40" as="geometry" />
        </mxCell>
        <mxCell id="K8jYG6XQFHsGVsh4xSQ5-54" style="edgeStyle=orthogonalEdgeStyle;rounded=0;orthogonalLoop=1;jettySize=auto;html=1;exitX=0.5;exitY=0;exitDx=0;exitDy=0;entryX=0.5;entryY=1;entryDx=0;entryDy=0;" parent="1" source="K8jYG6XQFHsGVsh4xSQ5-52" target="K8jYG6XQFHsGVsh4xSQ5-50" edge="1">
          <mxGeometry relative="1" as="geometry" />
        </mxCell>
        <mxCell id="K8jYG6XQFHsGVsh4xSQ5-52" value="Borrar&lt;br&gt;Cuenta" style="rounded=0;whiteSpace=wrap;html=1;fontStyle=0" parent="1" vertex="1">
          <mxGeometry x="585" y="530" width="60" height="40" as="geometry" />
        </mxCell>
        <mxCell id="K8jYG6XQFHsGVsh4xSQ5-60" style="edgeStyle=orthogonalEdgeStyle;rounded=0;orthogonalLoop=1;jettySize=auto;html=1;exitX=0.5;exitY=0;exitDx=0;exitDy=0;entryX=0.5;entryY=1;entryDx=0;entryDy=0;" parent="1" source="K8jYG6XQFHsGVsh4xSQ5-57" target="K8jYG6XQFHsGVsh4xSQ5-20" edge="1">
          <mxGeometry relative="1" as="geometry" />
        </mxCell>
        <mxCell id="K8jYG6XQFHsGVsh4xSQ5-57" value="Generar&lt;br&gt;Link" style="rounded=0;whiteSpace=wrap;html=1;fontStyle=0" parent="1" vertex="1">
          <mxGeometry x="705" y="530" width="60" height="40" as="geometry" />
        </mxCell>
        <mxCell id="K8jYG6XQFHsGVsh4xSQ5-59" style="edgeStyle=orthogonalEdgeStyle;rounded=0;orthogonalLoop=1;jettySize=auto;html=1;exitX=0.5;exitY=0;exitDx=0;exitDy=0;entryX=0.5;entryY=1;entryDx=0;entryDy=0;" parent="1" source="K8jYG6XQFHsGVsh4xSQ5-58" target="K8jYG6XQFHsGVsh4xSQ5-20" edge="1">
          <mxGeometry relative="1" as="geometry" />
        </mxCell>
        <mxCell id="K8jYG6XQFHsGVsh4xSQ5-58" value="Generar&lt;br&gt;QR" style="rounded=0;whiteSpace=wrap;html=1;fontStyle=0" parent="1" vertex="1">
          <mxGeometry x="775" y="530" width="60" height="40" as="geometry" />
        </mxCell>
        <mxCell id="K8jYG6XQFHsGVsh4xSQ5-64" style="edgeStyle=orthogonalEdgeStyle;rounded=0;orthogonalLoop=1;jettySize=auto;html=1;exitX=0.5;exitY=0;exitDx=0;exitDy=0;" parent="1" source="K8jYG6XQFHsGVsh4xSQ5-61" edge="1">
          <mxGeometry relative="1" as="geometry">
            <mxPoint x="935" y="490" as="targetPoint" />
          </mxGeometry>
        </mxCell>
        <mxCell id="K8jYG6XQFHsGVsh4xSQ5-61" value="Listar&lt;br&gt;Links" style="rounded=0;whiteSpace=wrap;html=1;fontStyle=0" parent="1" vertex="1">
          <mxGeometry x="875" y="530" width="60" height="40" as="geometry" />
        </mxCell>
        <mxCell id="K8jYG6XQFHsGVsh4xSQ5-63" style="edgeStyle=orthogonalEdgeStyle;rounded=0;orthogonalLoop=1;jettySize=auto;html=1;exitX=0.5;exitY=0;exitDx=0;exitDy=0;entryX=0.5;entryY=1;entryDx=0;entryDy=0;" parent="1" source="K8jYG6XQFHsGVsh4xSQ5-62" target="K8jYG6XQFHsGVsh4xSQ5-22" edge="1">
          <mxGeometry relative="1" as="geometry" />
        </mxCell>
        <mxCell id="K8jYG6XQFHsGVsh4xSQ5-62" value="Mostrar QR" style="rounded=0;whiteSpace=wrap;html=1;fontStyle=0" parent="1" vertex="1">
          <mxGeometry x="945" y="530" width="60" height="40" as="geometry" />
        </mxCell>
        <mxCell id="gg1q1fjQuGj6BDJIblKd-33" style="edgeStyle=orthogonalEdgeStyle;rounded=0;orthogonalLoop=1;jettySize=auto;html=1;exitX=0.5;exitY=0;exitDx=0;exitDy=0;entryX=0.5;entryY=1;entryDx=0;entryDy=0;" parent="1" source="K8jYG6XQFHsGVsh4xSQ5-92" target="K8jYG6XQFHsGVsh4xSQ5-57" edge="1">
          <mxGeometry relative="1" as="geometry" />
        </mxCell>
        <mxCell id="K8jYG6XQFHsGVsh4xSQ5-92" value="Endpoint&lt;br&gt;Create Links" style="rounded=0;whiteSpace=wrap;html=1;fontStyle=0" parent="1" vertex="1">
          <mxGeometry x="455" y="670" width="80" height="40" as="geometry" />
        </mxCell>
        <mxCell id="gg1q1fjQuGj6BDJIblKd-34" style="edgeStyle=orthogonalEdgeStyle;rounded=0;orthogonalLoop=1;jettySize=auto;html=1;exitX=0.5;exitY=0;exitDx=0;exitDy=0;entryX=0.5;entryY=1;entryDx=0;entryDy=0;" parent="1" source="K8jYG6XQFHsGVsh4xSQ5-93" target="K8jYG6XQFHsGVsh4xSQ5-57" edge="1">
          <mxGeometry relative="1" as="geometry">
            <mxPoint x="765" y="600" as="targetPoint" />
          </mxGeometry>
        </mxCell>
        <mxCell id="K8jYG6XQFHsGVsh4xSQ5-93" value="Endpoint&lt;br&gt;Read Links" style="rounded=0;whiteSpace=wrap;html=1;fontStyle=0" parent="1" vertex="1">
          <mxGeometry x="545" y="670" width="80" height="40" as="geometry" />
        </mxCell>
        <mxCell id="gg1q1fjQuGj6BDJIblKd-35" style="edgeStyle=orthogonalEdgeStyle;rounded=0;orthogonalLoop=1;jettySize=auto;html=1;exitX=0.5;exitY=0;exitDx=0;exitDy=0;entryX=0.5;entryY=1;entryDx=0;entryDy=0;" parent="1" source="K8jYG6XQFHsGVsh4xSQ5-94" target="K8jYG6XQFHsGVsh4xSQ5-61" edge="1">
          <mxGeometry relative="1" as="geometry">
            <Array as="points">
              <mxPoint x="675" y="640" />
              <mxPoint x="905" y="640" />
            </Array>
          </mxGeometry>
        </mxCell>
        <mxCell id="K8jYG6XQFHsGVsh4xSQ5-94" value="Endpoint&lt;br&gt;Update Links" style="rounded=0;whiteSpace=wrap;html=1;fontStyle=0" parent="1" vertex="1">
          <mxGeometry x="635" y="670" width="80" height="40" as="geometry" />
        </mxCell>
        <mxCell id="gg1q1fjQuGj6BDJIblKd-36" style="edgeStyle=orthogonalEdgeStyle;rounded=0;orthogonalLoop=1;jettySize=auto;html=1;exitX=0.5;exitY=0;exitDx=0;exitDy=0;entryX=0.5;entryY=1;entryDx=0;entryDy=0;" parent="1" source="K8jYG6XQFHsGVsh4xSQ5-95" target="K8jYG6XQFHsGVsh4xSQ5-61" edge="1">
          <mxGeometry relative="1" as="geometry">
            <Array as="points">
              <mxPoint x="765" y="640" />
              <mxPoint x="905" y="640" />
            </Array>
          </mxGeometry>
        </mxCell>
        <mxCell id="K8jYG6XQFHsGVsh4xSQ5-95" value="Endpoint&lt;br&gt;Delete Links" style="rounded=0;whiteSpace=wrap;html=1;fontStyle=0" parent="1" vertex="1">
          <mxGeometry x="725" y="670" width="80" height="40" as="geometry" />
        </mxCell>
        <mxCell id="gg1q1fjQuGj6BDJIblKd-18" value="Endpoints" style="text;html=1;align=center;verticalAlign=middle;resizable=0;points=[];autosize=1;strokeColor=none;fillColor=none;" parent="1" vertex="1">
          <mxGeometry x="165" y="810" width="70" height="20" as="geometry" />
        </mxCell>
        <mxCell id="gg1q1fjQuGj6BDJIblKd-24" style="edgeStyle=orthogonalEdgeStyle;rounded=0;orthogonalLoop=1;jettySize=auto;html=1;exitX=0.5;exitY=0;exitDx=0;exitDy=0;entryX=0.5;entryY=1;entryDx=0;entryDy=0;" parent="1" source="gg1q1fjQuGj6BDJIblKd-20" target="K8jYG6XQFHsGVsh4xSQ5-39" edge="1">
          <mxGeometry relative="1" as="geometry" />
        </mxCell>
        <mxCell id="gg1q1fjQuGj6BDJIblKd-25" style="edgeStyle=orthogonalEdgeStyle;rounded=0;orthogonalLoop=1;jettySize=auto;html=1;exitX=0.5;exitY=0;exitDx=0;exitDy=0;entryX=0.5;entryY=1;entryDx=0;entryDy=0;" parent="1" source="gg1q1fjQuGj6BDJIblKd-20" target="K8jYG6XQFHsGVsh4xSQ5-38" edge="1">
          <mxGeometry relative="1" as="geometry" />
        </mxCell>
        <mxCell id="gg1q1fjQuGj6BDJIblKd-26" style="edgeStyle=orthogonalEdgeStyle;rounded=0;orthogonalLoop=1;jettySize=auto;html=1;exitX=0.5;exitY=0;exitDx=0;exitDy=0;entryX=0.5;entryY=1;entryDx=0;entryDy=0;" parent="1" source="gg1q1fjQuGj6BDJIblKd-20" target="K8jYG6XQFHsGVsh4xSQ5-95" edge="1">
          <mxGeometry relative="1" as="geometry" />
        </mxCell>
        <mxCell id="gg1q1fjQuGj6BDJIblKd-27" style="edgeStyle=orthogonalEdgeStyle;rounded=0;orthogonalLoop=1;jettySize=auto;html=1;exitX=0.5;exitY=0;exitDx=0;exitDy=0;entryX=0.5;entryY=1;entryDx=0;entryDy=0;" parent="1" source="gg1q1fjQuGj6BDJIblKd-20" target="K8jYG6XQFHsGVsh4xSQ5-94" edge="1">
          <mxGeometry relative="1" as="geometry" />
        </mxCell>
        <mxCell id="gg1q1fjQuGj6BDJIblKd-28" style="edgeStyle=orthogonalEdgeStyle;rounded=0;orthogonalLoop=1;jettySize=auto;html=1;exitX=0.5;exitY=0;exitDx=0;exitDy=0;entryX=0.5;entryY=1;entryDx=0;entryDy=0;" parent="1" source="gg1q1fjQuGj6BDJIblKd-20" target="K8jYG6XQFHsGVsh4xSQ5-93" edge="1">
          <mxGeometry relative="1" as="geometry" />
        </mxCell>
        <mxCell id="gg1q1fjQuGj6BDJIblKd-29" style="edgeStyle=orthogonalEdgeStyle;rounded=0;orthogonalLoop=1;jettySize=auto;html=1;exitX=0.5;exitY=0;exitDx=0;exitDy=0;entryX=0.5;entryY=1;entryDx=0;entryDy=0;" parent="1" source="gg1q1fjQuGj6BDJIblKd-20" target="K8jYG6XQFHsGVsh4xSQ5-92" edge="1">
          <mxGeometry relative="1" as="geometry" />
        </mxCell>
        <mxCell id="gg1q1fjQuGj6BDJIblKd-32" style="edgeStyle=orthogonalEdgeStyle;rounded=0;orthogonalLoop=1;jettySize=auto;html=1;exitX=0.5;exitY=0;exitDx=0;exitDy=0;entryX=0.5;entryY=1;entryDx=0;entryDy=0;" parent="1" source="gg1q1fjQuGj6BDJIblKd-20" target="K8jYG6XQFHsGVsh4xSQ5-25" edge="1">
          <mxGeometry relative="1" as="geometry" />
        </mxCell>
        <mxCell id="gg1q1fjQuGj6BDJIblKd-20" value="Endpoint&lt;br&gt;Login" style="rounded=0;whiteSpace=wrap;html=1;fontStyle=0" parent="1" vertex="1">
          <mxGeometry x="375" y="860" width="80" height="40" as="geometry" />
        </mxCell>
        <mxCell id="gg1q1fjQuGj6BDJIblKd-31" style="edgeStyle=orthogonalEdgeStyle;rounded=0;orthogonalLoop=1;jettySize=auto;html=1;exitX=0.5;exitY=0;exitDx=0;exitDy=0;entryX=0.5;entryY=1;entryDx=0;entryDy=0;" parent="1" source="gg1q1fjQuGj6BDJIblKd-21" target="K8jYG6XQFHsGVsh4xSQ5-26" edge="1">
          <mxGeometry relative="1" as="geometry" />
        </mxCell>
        <mxCell id="gg1q1fjQuGj6BDJIblKd-21" value="Endpoint&lt;br&gt;Register" style="rounded=0;whiteSpace=wrap;html=1;fontStyle=0" parent="1" vertex="1">
          <mxGeometry x="285" y="860" width="80" height="40" as="geometry" />
        </mxCell>
        <mxCell id="gg1q1fjQuGj6BDJIblKd-37" value="Paginas --&amp;gt;" style="text;html=1;align=center;verticalAlign=middle;resizable=0;points=[];autosize=1;strokeColor=none;fillColor=none;" parent="1" vertex="1">
          <mxGeometry x="195" y="460" width="80" height="20" as="geometry" />
        </mxCell>
        <mxCell id="gg1q1fjQuGj6BDJIblKd-38" value="Componentes --&amp;gt;" style="text;html=1;align=center;verticalAlign=middle;resizable=0;points=[];autosize=1;strokeColor=none;fillColor=none;" parent="1" vertex="1">
          <mxGeometry x="180" y="540" width="110" height="20" as="geometry" />
        </mxCell>
        <mxCell id="gg1q1fjQuGj6BDJIblKd-39" value="" style="shape=curlyBracket;whiteSpace=wrap;html=1;rounded=1;flipH=1;fontFamily=Comic Sans MS;fontSize=10;fontColor=#FF0000;rotation=-180;fillColor=none;" parent="1" vertex="1">
          <mxGeometry x="235" y="660" width="20" height="320" as="geometry" />
        </mxCell>
        <mxCell id="5PHVcbMtjYp_4CeBIPDt-1" value="Acort.ar API" style="text;html=1;align=center;verticalAlign=middle;resizable=0;points=[];autosize=1;strokeColor=none;fillColor=none;fontSize=25;" vertex="1" parent="1">
          <mxGeometry x="145" y="5" width="160" height="40" as="geometry" />
        </mxCell>
      </root>
    </mxGraphModel>
  </diagram>
  <diagram id="TpAU5thq73M9outO9qTd" name="Diagrama Contexto">
    <mxGraphModel dx="866" dy="563" grid="1" gridSize="5" guides="1" tooltips="1" connect="0" arrows="1" fold="1" page="1" pageScale="1" pageWidth="827" pageHeight="1169" math="0" shadow="0">
      <root>
        <mxCell id="0" />
        <mxCell id="1" parent="0" />
        <mxCell id="oUODuGPNLjzPJijAdRqZ-1" value="Diagrama de contexto" style="text;html=1;align=center;verticalAlign=middle;resizable=0;points=[];autosize=1;strokeColor=none;fillColor=none;fontSize=21;" parent="1" vertex="1">
          <mxGeometry x="260" y="45" width="220" height="35" as="geometry" />
        </mxCell>
        <mxCell id="Q8tJQEWQhLgw1Kr85jzT-2" style="edgeStyle=orthogonalEdgeStyle;rounded=1;orthogonalLoop=1;jettySize=auto;html=1;exitX=0.99;exitY=0.305;exitDx=0;exitDy=0;exitPerimeter=0;entryX=-0.023;entryY=0.253;entryDx=0;entryDy=0;entryPerimeter=0;" parent="1" source="oUODuGPNLjzPJijAdRqZ-2" target="Q8tJQEWQhLgw1Kr85jzT-1" edge="1">
          <mxGeometry relative="1" as="geometry" />
        </mxCell>
        <mxCell id="Q8tJQEWQhLgw1Kr85jzT-12" value="ShortLink" style="edgeLabel;html=1;align=center;verticalAlign=middle;resizable=0;points=[];" parent="Q8tJQEWQhLgw1Kr85jzT-2" vertex="1" connectable="0">
          <mxGeometry x="-0.1653" y="-2" relative="1" as="geometry">
            <mxPoint as="offset" />
          </mxGeometry>
        </mxCell>
        <mxCell id="Q8tJQEWQhLgw1Kr85jzT-17" style="edgeStyle=orthogonalEdgeStyle;rounded=1;orthogonalLoop=1;jettySize=auto;html=1;" parent="1" source="oUODuGPNLjzPJijAdRqZ-2" target="oUODuGPNLjzPJijAdRqZ-3" edge="1">
          <mxGeometry relative="1" as="geometry" />
        </mxCell>
        <mxCell id="Q8tJQEWQhLgw1Kr85jzT-19" style="edgeStyle=orthogonalEdgeStyle;rounded=1;orthogonalLoop=1;jettySize=auto;html=1;" parent="1" source="oUODuGPNLjzPJijAdRqZ-2" target="Q8tJQEWQhLgw1Kr85jzT-18" edge="1">
          <mxGeometry relative="1" as="geometry" />
        </mxCell>
        <mxCell id="oUODuGPNLjzPJijAdRqZ-2" value="Acortador de enlaces" style="ellipse;whiteSpace=wrap;html=1;aspect=fixed;" parent="1" vertex="1">
          <mxGeometry x="330" y="120" width="80" height="80" as="geometry" />
        </mxCell>
        <mxCell id="oUODuGPNLjzPJijAdRqZ-3" value="Usuarios" style="whiteSpace=wrap;html=1;" parent="1" vertex="1">
          <mxGeometry x="270" y="255" width="70" height="30" as="geometry" />
        </mxCell>
        <mxCell id="DFErdLMUmvTXjZrNpeZ5-1" style="edgeStyle=orthogonalEdgeStyle;shape=connector;rounded=1;orthogonalLoop=1;jettySize=auto;html=1;entryX=0.05;entryY=0.755;entryDx=0;entryDy=0;entryPerimeter=0;labelBackgroundColor=default;fontFamily=Helvetica;fontSize=11;fontColor=default;endArrow=classic;strokeColor=default;" parent="1" source="oUODuGPNLjzPJijAdRqZ-4" target="oUODuGPNLjzPJijAdRqZ-2" edge="1">
          <mxGeometry relative="1" as="geometry" />
        </mxCell>
        <mxCell id="DFErdLMUmvTXjZrNpeZ5-2" value="Registrarse" style="edgeLabel;html=1;align=center;verticalAlign=middle;resizable=0;points=[];fontSize=11;fontFamily=Helvetica;fontColor=default;" parent="DFErdLMUmvTXjZrNpeZ5-1" vertex="1" connectable="0">
          <mxGeometry x="-0.0953" relative="1" as="geometry">
            <mxPoint x="-2" as="offset" />
          </mxGeometry>
        </mxCell>
        <mxCell id="oUODuGPNLjzPJijAdRqZ-4" value="Usuario" style="whiteSpace=wrap;html=1;" parent="1" vertex="1">
          <mxGeometry x="65" y="130" width="70" height="100" as="geometry" />
        </mxCell>
        <mxCell id="oUODuGPNLjzPJijAdRqZ-5" value="" style="endArrow=classic;html=1;rounded=1;exitX=0.986;exitY=0.147;exitDx=0;exitDy=0;exitPerimeter=0;entryX=0.05;entryY=0.295;entryDx=0;entryDy=0;entryPerimeter=0;" parent="1" source="oUODuGPNLjzPJijAdRqZ-4" target="oUODuGPNLjzPJijAdRqZ-2" edge="1">
          <mxGeometry width="50" height="50" relative="1" as="geometry">
            <mxPoint x="345" y="180" as="sourcePoint" />
            <mxPoint x="395" y="130" as="targetPoint" />
          </mxGeometry>
        </mxCell>
        <mxCell id="Q8tJQEWQhLgw1Kr85jzT-3" value="Link a acortar" style="edgeLabel;html=1;align=center;verticalAlign=middle;resizable=0;points=[];" parent="oUODuGPNLjzPJijAdRqZ-5" vertex="1" connectable="0">
          <mxGeometry x="-0.2134" y="1" relative="1" as="geometry">
            <mxPoint as="offset" />
          </mxGeometry>
        </mxCell>
        <mxCell id="Q8tJQEWQhLgw1Kr85jzT-1" value="Usuario" style="whiteSpace=wrap;html=1;" parent="1" vertex="1">
          <mxGeometry x="530" y="125" width="70" height="75" as="geometry" />
        </mxCell>
        <mxCell id="Q8tJQEWQhLgw1Kr85jzT-6" value="" style="endArrow=classic;html=1;rounded=1;exitX=0.997;exitY=0.296;exitDx=0;exitDy=0;exitPerimeter=0;startArrow=classic;startFill=1;" parent="1" source="oUODuGPNLjzPJijAdRqZ-4" target="oUODuGPNLjzPJijAdRqZ-2" edge="1">
          <mxGeometry width="50" height="50" relative="1" as="geometry">
            <mxPoint x="345" y="180" as="sourcePoint" />
            <mxPoint x="395" y="130" as="targetPoint" />
          </mxGeometry>
        </mxCell>
        <mxCell id="Q8tJQEWQhLgw1Kr85jzT-7" value="Login" style="edgeLabel;html=1;align=center;verticalAlign=middle;resizable=0;points=[];" parent="Q8tJQEWQhLgw1Kr85jzT-6" vertex="1" connectable="0">
          <mxGeometry x="-0.2134" y="1" relative="1" as="geometry">
            <mxPoint as="offset" />
          </mxGeometry>
        </mxCell>
        <mxCell id="Q8tJQEWQhLgw1Kr85jzT-13" style="edgeStyle=orthogonalEdgeStyle;rounded=1;orthogonalLoop=1;jettySize=auto;html=1;exitX=1;exitY=0.535;exitDx=0;exitDy=0;exitPerimeter=0;entryX=-0.034;entryY=0.504;entryDx=0;entryDy=0;entryPerimeter=0;" parent="1" source="oUODuGPNLjzPJijAdRqZ-2" target="Q8tJQEWQhLgw1Kr85jzT-1" edge="1">
          <mxGeometry relative="1" as="geometry" />
        </mxCell>
        <mxCell id="Q8tJQEWQhLgw1Kr85jzT-14" value="Qr" style="edgeLabel;html=1;align=center;verticalAlign=middle;resizable=0;points=[];" parent="Q8tJQEWQhLgw1Kr85jzT-13" vertex="1" connectable="0">
          <mxGeometry x="-0.1653" y="-2" relative="1" as="geometry">
            <mxPoint as="offset" />
          </mxGeometry>
        </mxCell>
        <mxCell id="Q8tJQEWQhLgw1Kr85jzT-18" value="Links" style="whiteSpace=wrap;html=1;" parent="1" vertex="1">
          <mxGeometry x="379" y="255" width="70" height="30" as="geometry" />
        </mxCell>
        <mxCell id="UjIA5ZOyadK92xWJWhl9-1" value="ENTRADAS" style="text;html=1;align=center;verticalAlign=middle;resizable=0;points=[];autosize=1;strokeColor=none;fillColor=none;" vertex="1" parent="1">
          <mxGeometry x="180" y="100" width="80" height="20" as="geometry" />
        </mxCell>
        <mxCell id="UjIA5ZOyadK92xWJWhl9-2" value="SALIDAS" style="text;html=1;align=center;verticalAlign=middle;resizable=0;points=[];autosize=1;strokeColor=none;fillColor=none;" vertex="1" parent="1">
          <mxGeometry x="435" y="100" width="65" height="20" as="geometry" />
        </mxCell>
        <mxCell id="UjIA5ZOyadK92xWJWhl9-3" value="ENDPOINTS" style="text;html=1;align=center;verticalAlign=middle;resizable=0;points=[];autosize=1;strokeColor=none;fillColor=none;" vertex="1" parent="1">
          <mxGeometry x="170" y="200" width="85" height="20" as="geometry" />
        </mxCell>
        <mxCell id="UjIA5ZOyadK92xWJWhl9-4" value="UI&#39;s" style="text;html=1;align=center;verticalAlign=middle;resizable=0;points=[];autosize=1;strokeColor=none;fillColor=none;" vertex="1" parent="1">
          <mxGeometry x="455" y="200" width="35" height="20" as="geometry" />
        </mxCell>
      </root>
    </mxGraphModel>
  </diagram>
  <diagram id="3dx1FZmz9Ep2AbdcT20f" name="Casos de uso">
    <mxGraphModel dx="866" dy="563" grid="1" gridSize="10" guides="1" tooltips="1" connect="1" arrows="1" fold="1" page="1" pageScale="1" pageWidth="1169" pageHeight="827" math="0" shadow="0">
      <root>
        <mxCell id="0" />
        <mxCell id="1" parent="0" />
        <mxCell id="lsZt3_j7wfr2TVqHncuY-1" value="Usuario" style="text;html=1;align=center;verticalAlign=middle;resizable=0;points=[];autosize=1;strokeColor=none;fillColor=none;" parent="1" vertex="1">
          <mxGeometry x="210" y="110" width="60" height="20" as="geometry" />
        </mxCell>
        <mxCell id="lsZt3_j7wfr2TVqHncuY-2" value="- ingresar link" style="text;html=1;align=left;verticalAlign=middle;resizable=0;points=[];autosize=1;strokeColor=none;fillColor=none;" parent="1" vertex="1">
          <mxGeometry x="230" y="135" width="90" height="20" as="geometry" />
        </mxCell>
        <mxCell id="lsZt3_j7wfr2TVqHncuY-4" value="`- Generar qr" style="text;html=1;align=left;verticalAlign=middle;resizable=0;points=[];autosize=1;strokeColor=none;fillColor=none;" parent="1" vertex="1">
          <mxGeometry x="225" y="155" width="80" height="20" as="geometry" />
        </mxCell>
        <mxCell id="lsZt3_j7wfr2TVqHncuY-5" value="`- Generar qr" style="text;html=1;align=left;verticalAlign=middle;resizable=0;points=[];autosize=1;strokeColor=none;fillColor=none;" parent="1" vertex="1">
          <mxGeometry x="225" y="175" width="80" height="20" as="geometry" />
        </mxCell>
      </root>
    </mxGraphModel>
  </diagram>
  <diagram id="ced-6VwUoJuSeVIsWTKz" name="Diagrama de clases">
    <mxGraphModel dx="866" dy="563" grid="1" gridSize="10" guides="1" tooltips="1" connect="1" arrows="1" fold="1" page="1" pageScale="1" pageWidth="1169" pageHeight="827" math="0" shadow="0">
      <root>
        <mxCell id="0" />
        <mxCell id="1" parent="0" />
        <mxCell id="pKobhYtn1KsW45cyrq-e-1" value="Link" style="swimlane;fontStyle=1;align=center;verticalAlign=top;childLayout=stackLayout;horizontal=1;startSize=26;horizontalStack=0;resizeParent=1;resizeParentMax=0;resizeLast=0;collapsible=1;marginBottom=0;fontFamily=Helvetica;fontSize=11;fontColor=default;" parent="1" vertex="1">
          <mxGeometry x="460" y="190" width="160" height="268" as="geometry" />
        </mxCell>
        <mxCell id="6uzHFvAri-M_jJKEOS2P-11" value="+ id_link" style="text;strokeColor=none;fillColor=none;align=left;verticalAlign=top;spacingLeft=4;spacingRight=4;overflow=hidden;rotatable=0;points=[[0,0.5],[1,0.5]];portConstraint=eastwest;fontFamily=Helvetica;fontSize=11;fontColor=default;" parent="pKobhYtn1KsW45cyrq-e-1" vertex="1">
          <mxGeometry y="26" width="160" height="26" as="geometry" />
        </mxCell>
        <mxCell id="6uzHFvAri-M_jJKEOS2P-9" value="+ qr_img: str" style="text;strokeColor=none;fillColor=none;align=left;verticalAlign=top;spacingLeft=4;spacingRight=4;overflow=hidden;rotatable=0;points=[[0,0.5],[1,0.5]];portConstraint=eastwest;fontFamily=Helvetica;fontSize=11;fontColor=default;" parent="pKobhYtn1KsW45cyrq-e-1" vertex="1">
          <mxGeometry y="52" width="160" height="26" as="geometry" />
        </mxCell>
        <mxCell id="6uzHFvAri-M_jJKEOS2P-10" value="+ link_source: str" style="text;strokeColor=none;fillColor=none;align=left;verticalAlign=top;spacingLeft=4;spacingRight=4;overflow=hidden;rotatable=0;points=[[0,0.5],[1,0.5]];portConstraint=eastwest;fontFamily=Helvetica;fontSize=11;fontColor=default;" parent="pKobhYtn1KsW45cyrq-e-1" vertex="1">
          <mxGeometry y="78" width="160" height="26" as="geometry" />
        </mxCell>
        <mxCell id="pKobhYtn1KsW45cyrq-e-2" value="+ link_target: str" style="text;strokeColor=none;fillColor=none;align=left;verticalAlign=top;spacingLeft=4;spacingRight=4;overflow=hidden;rotatable=0;points=[[0,0.5],[1,0.5]];portConstraint=eastwest;fontFamily=Helvetica;fontSize=11;fontColor=default;" parent="pKobhYtn1KsW45cyrq-e-1" vertex="1">
          <mxGeometry y="104" width="160" height="26" as="geometry" />
        </mxCell>
        <mxCell id="6uzHFvAri-M_jJKEOS2P-14" value="+ owner: int (n_usuario)" style="text;strokeColor=none;fillColor=none;align=left;verticalAlign=top;spacingLeft=4;spacingRight=4;overflow=hidden;rotatable=0;points=[[0,0.5],[1,0.5]];portConstraint=eastwest;fontFamily=Helvetica;fontSize=11;fontColor=default;" parent="pKobhYtn1KsW45cyrq-e-1" vertex="1">
          <mxGeometry y="130" width="160" height="26" as="geometry" />
        </mxCell>
        <mxCell id="pKobhYtn1KsW45cyrq-e-3" value="" style="line;strokeWidth=1;fillColor=none;align=left;verticalAlign=middle;spacingTop=-1;spacingLeft=3;spacingRight=3;rotatable=0;labelPosition=right;points=[];portConstraint=eastwest;fontFamily=Helvetica;fontSize=11;fontColor=default;" parent="pKobhYtn1KsW45cyrq-e-1" vertex="1">
          <mxGeometry y="156" width="160" height="8" as="geometry" />
        </mxCell>
        <mxCell id="alFyau8tHk5lXoiqKmOk-8" value="+ construct(props) : object" style="text;strokeColor=none;fillColor=none;align=left;verticalAlign=top;spacingLeft=4;spacingRight=4;overflow=hidden;rotatable=0;points=[[0,0.5],[1,0.5]];portConstraint=eastwest;fontFamily=Helvetica;fontSize=11;fontColor=default;" vertex="1" parent="pKobhYtn1KsW45cyrq-e-1">
          <mxGeometry y="164" width="160" height="26" as="geometry" />
        </mxCell>
        <mxCell id="alFyau8tHk5lXoiqKmOk-9" value="+ get(type): type" style="text;strokeColor=none;fillColor=none;align=left;verticalAlign=top;spacingLeft=4;spacingRight=4;overflow=hidden;rotatable=0;points=[[0,0.5],[1,0.5]];portConstraint=eastwest;fontFamily=Helvetica;fontSize=11;fontColor=default;" vertex="1" parent="pKobhYtn1KsW45cyrq-e-1">
          <mxGeometry y="190" width="160" height="26" as="geometry" />
        </mxCell>
        <mxCell id="alFyau8tHk5lXoiqKmOk-10" value="+ set(type): type" style="text;strokeColor=none;fillColor=none;align=left;verticalAlign=top;spacingLeft=4;spacingRight=4;overflow=hidden;rotatable=0;points=[[0,0.5],[1,0.5]];portConstraint=eastwest;fontFamily=Helvetica;fontSize=11;fontColor=default;" vertex="1" parent="pKobhYtn1KsW45cyrq-e-1">
          <mxGeometry y="216" width="160" height="26" as="geometry" />
        </mxCell>
        <mxCell id="alFyau8tHk5lXoiqKmOk-11" value="+ delete(type): type" style="text;strokeColor=none;fillColor=none;align=left;verticalAlign=top;spacingLeft=4;spacingRight=4;overflow=hidden;rotatable=0;points=[[0,0.5],[1,0.5]];portConstraint=eastwest;fontFamily=Helvetica;fontSize=11;fontColor=default;" vertex="1" parent="pKobhYtn1KsW45cyrq-e-1">
          <mxGeometry y="242" width="160" height="26" as="geometry" />
        </mxCell>
        <mxCell id="pKobhYtn1KsW45cyrq-e-5" value="Usuario" style="swimlane;fontStyle=1;align=center;verticalAlign=top;childLayout=stackLayout;horizontal=1;startSize=26;horizontalStack=0;resizeParent=1;resizeParentMax=0;resizeLast=0;collapsible=1;marginBottom=0;fontFamily=Helvetica;fontSize=11;fontColor=default;" parent="1" vertex="1">
          <mxGeometry x="170" y="190" width="160" height="268" as="geometry" />
        </mxCell>
        <mxCell id="6uzHFvAri-M_jJKEOS2P-8" value="+ n_usuario: int (16)" style="text;strokeColor=none;fillColor=none;align=left;verticalAlign=top;spacingLeft=4;spacingRight=4;overflow=hidden;rotatable=0;points=[[0,0.5],[1,0.5]];portConstraint=eastwest;fontFamily=Helvetica;fontSize=11;fontColor=default;" parent="pKobhYtn1KsW45cyrq-e-5" vertex="1">
          <mxGeometry y="26" width="160" height="26" as="geometry" />
        </mxCell>
        <mxCell id="pKobhYtn1KsW45cyrq-e-6" value="+ nombre: str" style="text;strokeColor=none;fillColor=none;align=left;verticalAlign=top;spacingLeft=4;spacingRight=4;overflow=hidden;rotatable=0;points=[[0,0.5],[1,0.5]];portConstraint=eastwest;fontFamily=Helvetica;fontSize=11;fontColor=default;" parent="pKobhYtn1KsW45cyrq-e-5" vertex="1">
          <mxGeometry y="52" width="160" height="26" as="geometry" />
        </mxCell>
        <mxCell id="6uzHFvAri-M_jJKEOS2P-7" value="+ password: std" style="text;strokeColor=none;fillColor=none;align=left;verticalAlign=top;spacingLeft=4;spacingRight=4;overflow=hidden;rotatable=0;points=[[0,0.5],[1,0.5]];portConstraint=eastwest;fontFamily=Helvetica;fontSize=11;fontColor=default;" parent="pKobhYtn1KsW45cyrq-e-5" vertex="1">
          <mxGeometry y="78" width="160" height="26" as="geometry" />
        </mxCell>
        <mxCell id="6uzHFvAri-M_jJKEOS2P-6" value="+ username: str" style="text;strokeColor=none;fillColor=none;align=left;verticalAlign=top;spacingLeft=4;spacingRight=4;overflow=hidden;rotatable=0;points=[[0,0.5],[1,0.5]];portConstraint=eastwest;fontFamily=Helvetica;fontSize=11;fontColor=default;" parent="pKobhYtn1KsW45cyrq-e-5" vertex="1">
          <mxGeometry y="104" width="160" height="26" as="geometry" />
        </mxCell>
        <mxCell id="6uzHFvAri-M_jJKEOS2P-12" value="+ links: array( id_link )" style="text;strokeColor=none;fillColor=none;align=left;verticalAlign=top;spacingLeft=4;spacingRight=4;overflow=hidden;rotatable=0;points=[[0,0.5],[1,0.5]];portConstraint=eastwest;fontFamily=Helvetica;fontSize=11;fontColor=default;" parent="pKobhYtn1KsW45cyrq-e-5" vertex="1">
          <mxGeometry y="130" width="160" height="26" as="geometry" />
        </mxCell>
        <mxCell id="pKobhYtn1KsW45cyrq-e-7" value="" style="line;strokeWidth=1;fillColor=none;align=left;verticalAlign=middle;spacingTop=-1;spacingLeft=3;spacingRight=3;rotatable=0;labelPosition=right;points=[];portConstraint=eastwest;fontFamily=Helvetica;fontSize=11;fontColor=default;" parent="pKobhYtn1KsW45cyrq-e-5" vertex="1">
          <mxGeometry y="156" width="160" height="8" as="geometry" />
        </mxCell>
        <mxCell id="alFyau8tHk5lXoiqKmOk-7" value="+ construct(props) : object" style="text;strokeColor=none;fillColor=none;align=left;verticalAlign=top;spacingLeft=4;spacingRight=4;overflow=hidden;rotatable=0;points=[[0,0.5],[1,0.5]];portConstraint=eastwest;fontFamily=Helvetica;fontSize=11;fontColor=default;" vertex="1" parent="pKobhYtn1KsW45cyrq-e-5">
          <mxGeometry y="164" width="160" height="26" as="geometry" />
        </mxCell>
        <mxCell id="pKobhYtn1KsW45cyrq-e-8" value="+ get(type): type" style="text;strokeColor=none;fillColor=none;align=left;verticalAlign=top;spacingLeft=4;spacingRight=4;overflow=hidden;rotatable=0;points=[[0,0.5],[1,0.5]];portConstraint=eastwest;fontFamily=Helvetica;fontSize=11;fontColor=default;" parent="pKobhYtn1KsW45cyrq-e-5" vertex="1">
          <mxGeometry y="190" width="160" height="26" as="geometry" />
        </mxCell>
        <mxCell id="alFyau8tHk5lXoiqKmOk-4" value="+ set(type): type" style="text;strokeColor=none;fillColor=none;align=left;verticalAlign=top;spacingLeft=4;spacingRight=4;overflow=hidden;rotatable=0;points=[[0,0.5],[1,0.5]];portConstraint=eastwest;fontFamily=Helvetica;fontSize=11;fontColor=default;" vertex="1" parent="pKobhYtn1KsW45cyrq-e-5">
          <mxGeometry y="216" width="160" height="26" as="geometry" />
        </mxCell>
        <mxCell id="alFyau8tHk5lXoiqKmOk-5" value="+ delete(type): type" style="text;strokeColor=none;fillColor=none;align=left;verticalAlign=top;spacingLeft=4;spacingRight=4;overflow=hidden;rotatable=0;points=[[0,0.5],[1,0.5]];portConstraint=eastwest;fontFamily=Helvetica;fontSize=11;fontColor=default;" vertex="1" parent="pKobhYtn1KsW45cyrq-e-5">
          <mxGeometry y="242" width="160" height="26" as="geometry" />
        </mxCell>
        <mxCell id="6uzHFvAri-M_jJKEOS2P-1" value="Login" style="swimlane;fontStyle=1;align=center;verticalAlign=top;childLayout=stackLayout;horizontal=1;startSize=26;horizontalStack=0;resizeParent=1;resizeParentMax=0;resizeLast=0;collapsible=1;marginBottom=0;fontFamily=Helvetica;fontSize=11;fontColor=default;" parent="1" vertex="1">
          <mxGeometry x="220" y="30" width="160" height="86" as="geometry" />
        </mxCell>
        <mxCell id="6uzHFvAri-M_jJKEOS2P-2" value="+ field: type" style="text;strokeColor=none;fillColor=none;align=left;verticalAlign=top;spacingLeft=4;spacingRight=4;overflow=hidden;rotatable=0;points=[[0,0.5],[1,0.5]];portConstraint=eastwest;fontFamily=Helvetica;fontSize=11;fontColor=default;" parent="6uzHFvAri-M_jJKEOS2P-1" vertex="1">
          <mxGeometry y="26" width="160" height="26" as="geometry" />
        </mxCell>
        <mxCell id="6uzHFvAri-M_jJKEOS2P-3" value="" style="line;strokeWidth=1;fillColor=none;align=left;verticalAlign=middle;spacingTop=-1;spacingLeft=3;spacingRight=3;rotatable=0;labelPosition=right;points=[];portConstraint=eastwest;fontFamily=Helvetica;fontSize=11;fontColor=default;" parent="6uzHFvAri-M_jJKEOS2P-1" vertex="1">
          <mxGeometry y="52" width="160" height="8" as="geometry" />
        </mxCell>
        <mxCell id="6uzHFvAri-M_jJKEOS2P-4" value="+ method(type): type" style="text;strokeColor=none;fillColor=none;align=left;verticalAlign=top;spacingLeft=4;spacingRight=4;overflow=hidden;rotatable=0;points=[[0,0.5],[1,0.5]];portConstraint=eastwest;fontFamily=Helvetica;fontSize=11;fontColor=default;" parent="6uzHFvAri-M_jJKEOS2P-1" vertex="1">
          <mxGeometry y="60" width="160" height="26" as="geometry" />
        </mxCell>
        <mxCell id="6uzHFvAri-M_jJKEOS2P-84" style="edgeStyle=orthogonalEdgeStyle;rounded=1;orthogonalLoop=1;jettySize=auto;html=1;exitX=1;exitY=0.5;exitDx=0;exitDy=0;entryX=0;entryY=0.5;entryDx=0;entryDy=0;endArrow=ERmandOne;endFill=0;startArrow=ERzeroToMany;startFill=0;" parent="1" source="6uzHFvAri-M_jJKEOS2P-16" target="6uzHFvAri-M_jJKEOS2P-81" edge="1">
          <mxGeometry relative="1" as="geometry" />
        </mxCell>
        <mxCell id="6uzHFvAri-M_jJKEOS2P-15" value="Usuarios" style="shape=table;startSize=30;container=1;collapsible=1;childLayout=tableLayout;fixedRows=1;rowLines=0;fontStyle=1;align=center;resizeLast=1;points=[[0,0,0,0,0],[0,0.25,0,0,0],[0,0.5,0,0,0],[0,0.75,0,0,0],[0,1,0,0,0],[0.25,0,0,0,0],[0.25,1,0,0,0],[0.5,0,0,0,0],[0.5,1,0,0,0],[0.75,0,0,0,0],[0.75,1,0,0,0],[1,0,0,0,0],[1,0.1,0,0,0],[1,0.5,0,0,0],[1,0.75,0,0,0],[1,1,0,0,0]];" parent="1" vertex="1">
          <mxGeometry x="150" y="510" width="180" height="153" as="geometry" />
        </mxCell>
        <mxCell id="6uzHFvAri-M_jJKEOS2P-16" value="" style="shape=tableRow;horizontal=0;startSize=0;swimlaneHead=0;swimlaneBody=0;fillColor=none;collapsible=0;dropTarget=0;points=[[0,0.5],[1,0.5]];portConstraint=eastwest;top=0;left=0;right=0;bottom=1;" parent="6uzHFvAri-M_jJKEOS2P-15" vertex="1">
          <mxGeometry y="30" width="180" height="30" as="geometry" />
        </mxCell>
        <mxCell id="6uzHFvAri-M_jJKEOS2P-17" value="PK" style="shape=partialRectangle;connectable=0;fillColor=none;top=0;left=0;bottom=0;right=0;fontStyle=1;overflow=hidden;" parent="6uzHFvAri-M_jJKEOS2P-16" vertex="1">
          <mxGeometry width="30" height="30" as="geometry">
            <mxRectangle width="30" height="30" as="alternateBounds" />
          </mxGeometry>
        </mxCell>
        <mxCell id="6uzHFvAri-M_jJKEOS2P-18" value="n_usuario" style="shape=partialRectangle;connectable=0;fillColor=none;top=0;left=0;bottom=0;right=0;align=left;spacingLeft=6;fontStyle=5;overflow=hidden;" parent="6uzHFvAri-M_jJKEOS2P-16" vertex="1">
          <mxGeometry x="30" width="150" height="30" as="geometry">
            <mxRectangle width="150" height="30" as="alternateBounds" />
          </mxGeometry>
        </mxCell>
        <mxCell id="6uzHFvAri-M_jJKEOS2P-56" value="" style="shape=tableRow;horizontal=0;startSize=0;swimlaneHead=0;swimlaneBody=0;fillColor=none;collapsible=0;dropTarget=0;points=[[0,0.5],[1,0.5]];portConstraint=eastwest;top=0;left=0;right=0;bottom=0;" parent="6uzHFvAri-M_jJKEOS2P-15" vertex="1">
          <mxGeometry y="60" width="180" height="30" as="geometry" />
        </mxCell>
        <mxCell id="6uzHFvAri-M_jJKEOS2P-57" value="char" style="shape=partialRectangle;connectable=0;fillColor=none;top=0;left=0;bottom=0;right=0;editable=1;overflow=hidden;" parent="6uzHFvAri-M_jJKEOS2P-56" vertex="1">
          <mxGeometry width="30" height="30" as="geometry">
            <mxRectangle width="30" height="30" as="alternateBounds" />
          </mxGeometry>
        </mxCell>
        <mxCell id="6uzHFvAri-M_jJKEOS2P-58" value="nombre" style="shape=partialRectangle;connectable=0;fillColor=none;top=0;left=0;bottom=0;right=0;align=left;spacingLeft=6;overflow=hidden;" parent="6uzHFvAri-M_jJKEOS2P-56" vertex="1">
          <mxGeometry x="30" width="150" height="30" as="geometry">
            <mxRectangle width="150" height="30" as="alternateBounds" />
          </mxGeometry>
        </mxCell>
        <mxCell id="6uzHFvAri-M_jJKEOS2P-65" value="" style="shape=tableRow;horizontal=0;startSize=0;swimlaneHead=0;swimlaneBody=0;fillColor=none;collapsible=0;dropTarget=0;points=[[0,0.5],[1,0.5]];portConstraint=eastwest;top=0;left=0;right=0;bottom=0;" parent="6uzHFvAri-M_jJKEOS2P-15" vertex="1">
          <mxGeometry y="90" width="180" height="30" as="geometry" />
        </mxCell>
        <mxCell id="6uzHFvAri-M_jJKEOS2P-66" value="char" style="shape=partialRectangle;connectable=0;fillColor=none;top=0;left=0;bottom=0;right=0;editable=1;overflow=hidden;" parent="6uzHFvAri-M_jJKEOS2P-65" vertex="1">
          <mxGeometry width="30" height="30" as="geometry">
            <mxRectangle width="30" height="30" as="alternateBounds" />
          </mxGeometry>
        </mxCell>
        <mxCell id="6uzHFvAri-M_jJKEOS2P-67" value="username" style="shape=partialRectangle;connectable=0;fillColor=none;top=0;left=0;bottom=0;right=0;align=left;spacingLeft=6;overflow=hidden;" parent="6uzHFvAri-M_jJKEOS2P-65" vertex="1">
          <mxGeometry x="30" width="150" height="30" as="geometry">
            <mxRectangle width="150" height="30" as="alternateBounds" />
          </mxGeometry>
        </mxCell>
        <mxCell id="6uzHFvAri-M_jJKEOS2P-62" value="" style="shape=tableRow;horizontal=0;startSize=0;swimlaneHead=0;swimlaneBody=0;fillColor=none;collapsible=0;dropTarget=0;points=[[0,0.5],[1,0.5]];portConstraint=eastwest;top=0;left=0;right=0;bottom=0;" parent="6uzHFvAri-M_jJKEOS2P-15" vertex="1">
          <mxGeometry y="120" width="180" height="30" as="geometry" />
        </mxCell>
        <mxCell id="6uzHFvAri-M_jJKEOS2P-63" value="char" style="shape=partialRectangle;connectable=0;fillColor=none;top=0;left=0;bottom=0;right=0;editable=1;overflow=hidden;" parent="6uzHFvAri-M_jJKEOS2P-62" vertex="1">
          <mxGeometry width="30" height="30" as="geometry">
            <mxRectangle width="30" height="30" as="alternateBounds" />
          </mxGeometry>
        </mxCell>
        <mxCell id="6uzHFvAri-M_jJKEOS2P-64" value="password" style="shape=partialRectangle;connectable=0;fillColor=none;top=0;left=0;bottom=0;right=0;align=left;spacingLeft=6;overflow=hidden;" parent="6uzHFvAri-M_jJKEOS2P-62" vertex="1">
          <mxGeometry x="30" width="150" height="30" as="geometry">
            <mxRectangle width="150" height="30" as="alternateBounds" />
          </mxGeometry>
        </mxCell>
        <mxCell id="6uzHFvAri-M_jJKEOS2P-28" value="Links" style="shape=table;startSize=30;container=1;collapsible=1;childLayout=tableLayout;fixedRows=1;rowLines=0;fontStyle=1;align=center;resizeLast=1;" parent="1" vertex="1">
          <mxGeometry x="450" y="510" width="210" height="213" as="geometry" />
        </mxCell>
        <mxCell id="6uzHFvAri-M_jJKEOS2P-29" value="" style="shape=tableRow;horizontal=0;startSize=0;swimlaneHead=0;swimlaneBody=0;fillColor=none;collapsible=0;dropTarget=0;points=[[0,0.5],[1,0.5]];portConstraint=eastwest;top=0;left=0;right=0;bottom=1;" parent="6uzHFvAri-M_jJKEOS2P-28" vertex="1">
          <mxGeometry y="30" width="210" height="30" as="geometry" />
        </mxCell>
        <mxCell id="6uzHFvAri-M_jJKEOS2P-30" value="PK" style="shape=partialRectangle;connectable=0;fillColor=none;top=0;left=0;bottom=0;right=0;fontStyle=1;overflow=hidden;" parent="6uzHFvAri-M_jJKEOS2P-29" vertex="1">
          <mxGeometry width="30" height="30" as="geometry">
            <mxRectangle width="30" height="30" as="alternateBounds" />
          </mxGeometry>
        </mxCell>
        <mxCell id="6uzHFvAri-M_jJKEOS2P-31" value="id_link" style="shape=partialRectangle;connectable=0;fillColor=none;top=0;left=0;bottom=0;right=0;align=left;spacingLeft=6;fontStyle=5;overflow=hidden;" parent="6uzHFvAri-M_jJKEOS2P-29" vertex="1">
          <mxGeometry x="30" width="180" height="30" as="geometry">
            <mxRectangle width="180" height="30" as="alternateBounds" />
          </mxGeometry>
        </mxCell>
        <mxCell id="6uzHFvAri-M_jJKEOS2P-81" value="" style="shape=tableRow;horizontal=0;startSize=0;swimlaneHead=0;swimlaneBody=0;fillColor=none;collapsible=0;dropTarget=0;points=[[0,0.5],[1,0.5]];portConstraint=eastwest;top=0;left=0;right=0;bottom=1;" parent="6uzHFvAri-M_jJKEOS2P-28" vertex="1">
          <mxGeometry y="60" width="210" height="30" as="geometry" />
        </mxCell>
        <mxCell id="6uzHFvAri-M_jJKEOS2P-82" value="FK" style="shape=partialRectangle;connectable=0;fillColor=none;top=0;left=0;bottom=0;right=0;fontStyle=1;overflow=hidden;" parent="6uzHFvAri-M_jJKEOS2P-81" vertex="1">
          <mxGeometry width="30" height="30" as="geometry">
            <mxRectangle width="30" height="30" as="alternateBounds" />
          </mxGeometry>
        </mxCell>
        <mxCell id="6uzHFvAri-M_jJKEOS2P-83" value="propietario: int(n_usuario)" style="shape=partialRectangle;connectable=0;fillColor=none;top=0;left=0;bottom=0;right=0;align=left;spacingLeft=6;fontStyle=5;overflow=hidden;" parent="6uzHFvAri-M_jJKEOS2P-81" vertex="1">
          <mxGeometry x="30" width="180" height="30" as="geometry">
            <mxRectangle width="180" height="30" as="alternateBounds" />
          </mxGeometry>
        </mxCell>
        <mxCell id="6uzHFvAri-M_jJKEOS2P-69" value="" style="shape=tableRow;horizontal=0;startSize=0;swimlaneHead=0;swimlaneBody=0;fillColor=none;collapsible=0;dropTarget=0;points=[[0,0.5],[1,0.5]];portConstraint=eastwest;top=0;left=0;right=0;bottom=0;" parent="6uzHFvAri-M_jJKEOS2P-28" vertex="1">
          <mxGeometry y="90" width="210" height="30" as="geometry" />
        </mxCell>
        <mxCell id="6uzHFvAri-M_jJKEOS2P-70" value="char" style="shape=partialRectangle;connectable=0;fillColor=none;top=0;left=0;bottom=0;right=0;editable=1;overflow=hidden;" parent="6uzHFvAri-M_jJKEOS2P-69" vertex="1">
          <mxGeometry width="30" height="30" as="geometry">
            <mxRectangle width="30" height="30" as="alternateBounds" />
          </mxGeometry>
        </mxCell>
        <mxCell id="6uzHFvAri-M_jJKEOS2P-71" value="propietario" style="shape=partialRectangle;connectable=0;fillColor=none;top=0;left=0;bottom=0;right=0;align=left;spacingLeft=6;overflow=hidden;" parent="6uzHFvAri-M_jJKEOS2P-69" vertex="1">
          <mxGeometry x="30" width="180" height="30" as="geometry">
            <mxRectangle width="180" height="30" as="alternateBounds" />
          </mxGeometry>
        </mxCell>
        <mxCell id="6uzHFvAri-M_jJKEOS2P-32" value="" style="shape=tableRow;horizontal=0;startSize=0;swimlaneHead=0;swimlaneBody=0;fillColor=none;collapsible=0;dropTarget=0;points=[[0,0.5],[1,0.5]];portConstraint=eastwest;top=0;left=0;right=0;bottom=0;" parent="6uzHFvAri-M_jJKEOS2P-28" vertex="1">
          <mxGeometry y="120" width="210" height="30" as="geometry" />
        </mxCell>
        <mxCell id="6uzHFvAri-M_jJKEOS2P-33" value="char" style="shape=partialRectangle;connectable=0;fillColor=none;top=0;left=0;bottom=0;right=0;editable=1;overflow=hidden;" parent="6uzHFvAri-M_jJKEOS2P-32" vertex="1">
          <mxGeometry width="30" height="30" as="geometry">
            <mxRectangle width="30" height="30" as="alternateBounds" />
          </mxGeometry>
        </mxCell>
        <mxCell id="6uzHFvAri-M_jJKEOS2P-34" value="url_destino" style="shape=partialRectangle;connectable=0;fillColor=none;top=0;left=0;bottom=0;right=0;align=left;spacingLeft=6;overflow=hidden;" parent="6uzHFvAri-M_jJKEOS2P-32" vertex="1">
          <mxGeometry x="30" width="180" height="30" as="geometry">
            <mxRectangle width="180" height="30" as="alternateBounds" />
          </mxGeometry>
        </mxCell>
        <mxCell id="6uzHFvAri-M_jJKEOS2P-35" value="" style="shape=tableRow;horizontal=0;startSize=0;swimlaneHead=0;swimlaneBody=0;fillColor=none;collapsible=0;dropTarget=0;points=[[0,0.5],[1,0.5]];portConstraint=eastwest;top=0;left=0;right=0;bottom=0;" parent="6uzHFvAri-M_jJKEOS2P-28" vertex="1">
          <mxGeometry y="150" width="210" height="30" as="geometry" />
        </mxCell>
        <mxCell id="6uzHFvAri-M_jJKEOS2P-36" value="char" style="shape=partialRectangle;connectable=0;fillColor=none;top=0;left=0;bottom=0;right=0;editable=1;overflow=hidden;" parent="6uzHFvAri-M_jJKEOS2P-35" vertex="1">
          <mxGeometry width="30" height="30" as="geometry">
            <mxRectangle width="30" height="30" as="alternateBounds" />
          </mxGeometry>
        </mxCell>
        <mxCell id="6uzHFvAri-M_jJKEOS2P-37" value="qr_img" style="shape=partialRectangle;connectable=0;fillColor=none;top=0;left=0;bottom=0;right=0;align=left;spacingLeft=6;overflow=hidden;" parent="6uzHFvAri-M_jJKEOS2P-35" vertex="1">
          <mxGeometry x="30" width="180" height="30" as="geometry">
            <mxRectangle width="180" height="30" as="alternateBounds" />
          </mxGeometry>
        </mxCell>
        <mxCell id="6uzHFvAri-M_jJKEOS2P-38" value="" style="shape=tableRow;horizontal=0;startSize=0;swimlaneHead=0;swimlaneBody=0;fillColor=none;collapsible=0;dropTarget=0;points=[[0,0.5],[1,0.5]];portConstraint=eastwest;top=0;left=0;right=0;bottom=0;" parent="6uzHFvAri-M_jJKEOS2P-28" vertex="1">
          <mxGeometry y="180" width="210" height="30" as="geometry" />
        </mxCell>
        <mxCell id="6uzHFvAri-M_jJKEOS2P-39" value="char" style="shape=partialRectangle;connectable=0;fillColor=none;top=0;left=0;bottom=0;right=0;editable=1;overflow=hidden;" parent="6uzHFvAri-M_jJKEOS2P-38" vertex="1">
          <mxGeometry width="30" height="30" as="geometry">
            <mxRectangle width="30" height="30" as="alternateBounds" />
          </mxGeometry>
        </mxCell>
        <mxCell id="6uzHFvAri-M_jJKEOS2P-40" value="uri_origen" style="shape=partialRectangle;connectable=0;fillColor=none;top=0;left=0;bottom=0;right=0;align=left;spacingLeft=6;overflow=hidden;" parent="6uzHFvAri-M_jJKEOS2P-38" vertex="1">
          <mxGeometry x="30" width="180" height="30" as="geometry">
            <mxRectangle width="180" height="30" as="alternateBounds" />
          </mxGeometry>
        </mxCell>
        <mxCell id="alFyau8tHk5lXoiqKmOk-12" value="acort.ar.test/owner/target/" style="text;html=1;align=center;verticalAlign=middle;resizable=0;points=[];autosize=1;strokeColor=none;fillColor=none;" vertex="1" parent="1">
          <mxGeometry x="650" y="170" width="150" height="20" as="geometry" />
        </mxCell>
        <mxCell id="alFyau8tHk5lXoiqKmOk-15" style="edgeStyle=orthogonalEdgeStyle;rounded=0;orthogonalLoop=1;jettySize=auto;html=1;entryX=0.467;entryY=1.2;entryDx=0;entryDy=0;entryPerimeter=0;exitX=-0.033;exitY=0.55;exitDx=0;exitDy=0;exitPerimeter=0;" edge="1" parent="1" source="alFyau8tHk5lXoiqKmOk-13" target="alFyau8tHk5lXoiqKmOk-12">
          <mxGeometry relative="1" as="geometry" />
        </mxCell>
        <mxCell id="alFyau8tHk5lXoiqKmOk-13" value="qr" style="text;html=1;align=center;verticalAlign=middle;resizable=0;points=[];autosize=1;strokeColor=none;fillColor=none;" vertex="1" parent="1">
          <mxGeometry x="760" y="210" width="30" height="20" as="geometry" />
        </mxCell>
      </root>
    </mxGraphModel>
  </diagram>
</mxfile>
